<svg width="72" height="72" viewBox="0 0 72 72" fill="none" xmlns="http://www.w3.org/2000/svg">
<path d="M36.1477 69.0001C17.87 69.0001 3 54.1301 3 35.8524C3.0007 27.8642 5.88559 20.145 11.124 14.1144C16.3625 8.08374 23.6023 4.1473 31.5117 3.02908C32.1457 2.94035 32.7915 3.05677 33.3546 3.36129C33.9177 3.66582 34.3686 4.14249 34.6414 4.72162C34.9142 5.30074 34.9946 5.95195 34.8708 6.58005C34.7471 7.20814 34.4257 7.78017 33.9535 8.21251C31.7933 10.1932 30.0677 12.6007 28.886 15.2827C27.7043 17.9648 27.0923 20.8629 27.0886 23.7938C27.0886 35.4375 36.5625 44.9114 48.2063 44.9114C51.1371 44.9078 54.0353 44.2957 56.7173 43.114C59.3994 41.9324 61.8069 40.2068 63.7875 38.0465C64.2199 37.5743 64.7919 37.2527 65.4201 37.1289C66.0482 37.0051 66.6995 37.0854 67.2787 37.3583C67.8579 37.6311 68.3346 38.0821 68.6392 38.6453C68.9437 39.2085 69.0601 39.8543 68.9713 40.4883C67.853 48.3978 63.9166 55.6376 57.886 60.876C51.8554 66.1145 44.1361 68.9994 36.148 69.0001H36.1477ZM24.0047 11.5777C15.0594 16.0843 9.00005 25.3938 9.00005 35.8524C9.00005 50.8219 21.1782 63 36.1477 63C46.6063 63 55.9158 56.9406 60.4224 47.9953C56.6344 49.9093 52.4503 50.908 48.2063 50.9113C33.2534 50.9113 21.088 38.7461 21.088 23.7931C21.0917 19.5492 22.0907 15.3654 24.0047 11.5777Z" fill="black"/>
</svg>
